<?xml version="1.0" standalone="no"?>
<!DOCTYPE svg PUBLIC "-//W3C//DTD SVG 20010904//EN"
 "http://www.w3.org/TR/2001/REC-SVG-20010904/DTD/svg10.dtd">
<svg version="1.0" xmlns="http://www.w3.org/2000/svg"
 width="324.000000pt" height="324.000000pt" viewBox="0 0 324.000000 324.000000"
 preserveAspectRatio="xMidYMid meet">
<metadata>
Created by potrace 1.14, written by Peter Selinger 2001-2017
</metadata>
<g transform="translate(0.000000,324.000000) scale(0.100000,-0.100000)"
fill="#000000" stroke="none">
<path d="M1838 3160 c-70 -19 -143 -68 -183 -123 -16 -23 -30 -44 -30 -47 -1
-3 -6 -14 -12 -25 -14 -25 -31 -115 -27 -147 13 -119 91 -235 184 -275 151
-65 276 -41 381 74 63 68 83 128 80 233 -5 182 -132 309 -321 325 -8 0 -41 -6
-72 -15z"/>
<path d="M1160 2518 c-33 -12 -94 -92 -129 -170 -16 -35 -41 -115 -56 -178
-15 -63 -42 -175 -61 -248 -19 -72 -34 -148 -34 -168 0 -71 50 -136 113 -148
15 -2 32 -8 39 -12 7 -4 24 -9 38 -10 14 -2 55 -6 93 -10 72 -7 74 -8 80 -45
21 -112 104 -319 128 -319 5 0 9 -4 9 -9 0 -5 25 -45 55 -90 30 -45 55 -84 55
-87 0 -3 8 -18 19 -32 66 -96 150 -296 166 -397 5 -34 15 -200 15 -257 0 -25
74 -95 115 -108 47 -15 93 0 145 49 l40 37 -4 209 c-5 278 -12 307 -114 496
-59 110 -75 174 -75 299 1 102 23 229 45 258 6 6 8 12 5 12 -5 0 39 129 47
137 4 4 68 -19 136 -49 30 -14 118 -51 195 -83 158 -66 168 -72 160 -94 -4 -9
-11 -43 -16 -76 -5 -33 -13 -78 -18 -100 -11 -47 -30 -141 -37 -181 -2 -16
-11 -63 -20 -104 -8 -41 -19 -97 -24 -125 -6 -27 -22 -108 -36 -180 -14 -71
-28 -143 -31 -160 -2 -16 -10 -55 -18 -85 -7 -30 -16 -71 -19 -90 -3 -19 -8
-45 -10 -57 -10 -49 -18 -113 -15 -114 2 0 22 -2 44 -5 l41 -5 32 143 c18 79
39 172 48 208 30 133 73 347 83 420 15 105 21 137 32 200 6 30 13 68 15 83 11
58 46 145 93 227 54 93 81 164 81 211 0 16 -14 66 -31 110 -35 91 -26 88 -134
49 -63 -23 -167 -29 -173 -10 -2 5 -7 8 -11 5 -11 -6 -94 73 -128 125 -17 25
-56 85 -88 134 -69 107 -78 118 -135 176 -47 47 -77 67 -114 77 -41 12 -111
10 -154 -2 -23 -7 -46 -14 -50 -15 -4 -2 -12 -5 -19 -7 -11 -4 -65 21 -183 83
-19 11 -37 21 -40 24 -9 9 -93 47 -122 55 -5 2 -9 3 -10 5 -9 6 -37 6 -58 -2z"/>
<path d="M1219 1183 c-67 -154 -218 -528 -261 -643 -49 -132 -50 -136 -38
-185 15 -59 35 -97 61 -113 39 -25 157 -14 190 17 14 14 115 213 174 346 39
87 83 249 78 286 -4 30 -94 209 -105 209 -4 0 -8 5 -8 10 0 6 -11 28 -25 50
-14 22 -25 46 -25 55 0 30 -21 14 -41 -32z"/>
</g>
</svg>
